<svg width="650" height="105" viewBox="0 0 650 105" fill="none" xmlns="http://www.w3.org/2000/svg">
<path d="M443.532 43.8309H397.574L405.077 26.9089C408.203 19.8349 411.017 17.3382 415.602 17.3382C420.292 17.3382 421.855 22.3316 419.354 28.4346H466.25L470.94 17.3382C474.379 9.01585 474.379 0 465.937 0H383.296C375.793 0 369.957 1.24835 365.58 10.819L350.99 43.8309C346.926 53.4016 347.239 61.1691 357.243 61.1691H404.764L397.053 79.3395C394.864 84.3329 392.05 87.6618 385.589 87.6618C379.962 87.6618 380.274 82.6684 382.775 77.8137H336.192L330.565 90.1585C327.126 98.0647 329.939 105 338.068 105H420.084C427.587 105 434.048 100.423 437.8 92.2391L451.764 61.1691C454.682 53.4016 453.119 43.8309 443.532 43.8309Z" fill="white"/>
<path d="M643.1 20.3906C639.349 20.3906 636.222 24.4131 636.222 29.2678C636.222 34.2612 639.349 38.1449 643.1 38.1449C646.852 38.1449 649.978 34.1225 649.978 29.2678C649.874 24.4131 646.852 20.3906 643.1 20.3906ZM643.1 36.4805C639.974 36.4805 637.577 33.2902 637.577 29.2678C637.577 25.384 640.078 22.1938 643.1 22.1938C646.122 22.1938 648.624 25.384 648.624 29.2678C648.624 33.2902 646.122 36.4805 643.1 36.4805Z" fill="white"/>
<path d="M337.654 0H267.414C257.827 0 245.321 0 237.922 17.3382L206.867 87.6618C202.49 97.2325 206.241 105 214.37 105H295.969C304.306 105 309.62 101.671 316.186 87.6618L347.241 17.3382C351.306 8.32232 345.053 0 337.654 0ZM298.157 26.9089L274.918 79.3395C271.791 86.8296 268.977 87.6618 261.891 87.6618C254.7 87.6618 252.929 84.3329 255.013 79.3395L278.565 26.9089C282.004 19.0026 286.068 17.3382 291.904 17.3382C297.844 17.3382 301.283 19.8349 298.157 26.9089Z" fill="white"/>
<path d="M214.575 0H124.535L85.7673 87.6618H0V105H172.994C184.457 105 188.209 97.5099 190.71 91.823L199.985 70.3236C202.486 64.498 202.486 57.9789 197.484 54.2338C202.486 54.2338 209.26 49.6565 213.324 40.2246L222.599 19.1413C227.393 8.73844 221.765 0 214.575 0ZM168.304 70.7398L163.614 80.5878C162.364 83.9168 160.175 87.6618 154.965 87.6618H131.934L143.814 61.1691H166.115C170.18 61.1691 170.18 66.1625 168.304 70.7398ZM187.896 26.9089L183.206 36.8956C181.956 40.2246 179.767 43.9696 174.557 43.9696H151.526L163.302 17.4769H185.708C189.772 17.3382 189.772 22.3316 187.896 26.9089Z" fill="white"/>
<path d="M646.539 26.9088C646.539 26.0766 646.227 25.2443 645.706 24.8282C645.08 24.4121 644.455 24.4121 643.83 24.4121H640.495V34.2602H641.641V29.6829H642.996L645.184 34.2602H646.435L644.142 29.6829C645.497 29.6829 646.539 28.8507 646.539 26.9088ZM642.892 28.4346H641.641V25.383H643.621C644.559 25.383 645.393 25.5218 645.393 26.7701C645.393 28.712 643.934 28.4346 642.892 28.4346Z" fill="white"/>
<path d="M531.904 17.3382H648.415V0H493.137L446.867 105H554.936L562.647 87.6618H500.849L512.625 61.1691H574.423L581.927 43.8309H520.441L531.904 17.3382Z" fill="white"/>
</svg>
