<svg width="414" height="170" viewBox="0 0 414 170" fill="none" xmlns="http://www.w3.org/2000/svg">
<g filter="url(#filter0_d_4_452)">
<rect x="32.0878" y="32.0002" width="349" height="106" rx="12" fill="white"/>
</g>
<path d="M60.6178 94.5752C61.7278 94.5752 62.6978 94.7902 63.5278 95.2202C64.3678 95.6402 65.0128 96.2502 65.4628 97.0502C65.9228 97.8402 66.1528 98.7652 66.1528 99.8252C66.1528 100.885 65.9228 101.805 65.4628 102.585C65.0128 103.365 64.3678 103.965 63.5278 104.385C62.6978 104.795 61.7278 105 60.6178 105H57.2128V94.5752H60.6178ZM60.6178 103.605C61.8378 103.605 62.7728 103.275 63.4228 102.615C64.0728 101.955 64.3978 101.025 64.3978 99.8252C64.3978 98.6152 64.0728 97.6702 63.4228 96.9902C62.7728 96.3102 61.8378 95.9702 60.6178 95.9702H58.9228V103.605H60.6178ZM75.4226 100.665C75.4226 100.975 75.4026 101.255 75.3626 101.505H69.0476C69.0976 102.165 69.3426 102.695 69.7826 103.095C70.2226 103.495 70.7626 103.695 71.4026 103.695C72.3226 103.695 72.9726 103.31 73.3526 102.54H75.1976C74.9476 103.3 74.4926 103.925 73.8326 104.415C73.1826 104.895 72.3726 105.135 71.4026 105.135C70.6126 105.135 69.9026 104.96 69.2726 104.61C68.6526 104.25 68.1626 103.75 67.8026 103.11C67.4526 102.46 67.2776 101.71 67.2776 100.86C67.2776 100.01 67.4476 99.2652 67.7876 98.6252C68.1376 97.9752 68.6226 97.4752 69.2426 97.1252C69.8726 96.7752 70.5926 96.6002 71.4026 96.6002C72.1826 96.6002 72.8776 96.7702 73.4876 97.1102C74.0976 97.4502 74.5726 97.9302 74.9126 98.5502C75.2526 99.1602 75.4226 99.8652 75.4226 100.665ZM73.6376 100.125C73.6276 99.4952 73.4026 98.9902 72.9626 98.6102C72.5226 98.2302 71.9776 98.0402 71.3276 98.0402C70.7376 98.0402 70.2326 98.2302 69.8126 98.6102C69.3926 98.9802 69.1426 99.4852 69.0626 100.125H73.6376ZM80.1054 105.135C79.4554 105.135 78.8704 105.02 78.3504 104.79C77.8404 104.55 77.4354 104.23 77.1354 103.83C76.8354 103.42 76.6754 102.965 76.6554 102.465H78.4254C78.4554 102.815 78.6204 103.11 78.9204 103.35C79.2304 103.58 79.6154 103.695 80.0754 103.695C80.5554 103.695 80.9254 103.605 81.1854 103.425C81.4554 103.235 81.5904 102.995 81.5904 102.705C81.5904 102.395 81.4404 102.165 81.1404 102.015C80.8504 101.865 80.3854 101.7 79.7454 101.52C79.1254 101.35 78.6204 101.185 78.2304 101.025C77.8404 100.865 77.5004 100.62 77.2104 100.29C76.9304 99.9602 76.7904 99.5252 76.7904 98.9852C76.7904 98.5452 76.9204 98.1452 77.1804 97.7852C77.4404 97.4152 77.8104 97.1252 78.2904 96.9152C78.7804 96.7052 79.3404 96.6002 79.9704 96.6002C80.9104 96.6002 81.6654 96.8402 82.2354 97.3202C82.8154 97.7902 83.1254 98.4352 83.1654 99.2552H81.4554C81.4254 98.8852 81.2754 98.5902 81.0054 98.3702C80.7354 98.1502 80.3704 98.0402 79.9104 98.0402C79.4604 98.0402 79.1154 98.1252 78.8754 98.2952C78.6354 98.4652 78.5154 98.6902 78.5154 98.9702C78.5154 99.1902 78.5954 99.3752 78.7554 99.5252C78.9154 99.6752 79.1104 99.7952 79.3404 99.8852C79.5704 99.9652 79.9104 100.07 80.3604 100.2C80.9604 100.36 81.4504 100.525 81.8304 100.695C82.2204 100.855 82.5554 101.095 82.8354 101.415C83.1154 101.735 83.2604 102.16 83.2704 102.69C83.2704 103.16 83.1404 103.58 82.8804 103.95C82.6204 104.32 82.2504 104.61 81.7704 104.82C81.3004 105.03 80.7454 105.135 80.1054 105.135ZM85.9881 95.6402C85.6781 95.6402 85.4181 95.5352 85.2081 95.3252C84.9981 95.1152 84.8931 94.8552 84.8931 94.5452C84.8931 94.2352 84.9981 93.9752 85.2081 93.7652C85.4181 93.5552 85.6781 93.4502 85.9881 93.4502C86.2881 93.4502 86.5431 93.5552 86.7531 93.7652C86.9631 93.9752 87.0681 94.2352 87.0681 94.5452C87.0681 94.8552 86.9631 95.1152 86.7531 95.3252C86.5431 95.5352 86.2881 95.6402 85.9881 95.6402ZM86.8281 96.7352V105H85.1181V96.7352H86.8281ZM92.4032 96.6002C93.0432 96.6002 93.6082 96.7302 94.0982 96.9902C94.5982 97.2402 94.9882 97.5552 95.2682 97.9352V96.7352H96.9932V105.135C96.9932 105.895 96.8332 106.57 96.5132 107.16C96.1932 107.76 95.7282 108.23 95.1182 108.57C94.5182 108.91 93.7982 109.08 92.9582 109.08C91.8382 109.08 90.9082 108.815 90.1682 108.285C89.4282 107.765 89.0082 107.055 88.9082 106.155H90.6032C90.7332 106.585 91.0082 106.93 91.4282 107.19C91.8582 107.46 92.3682 107.595 92.9582 107.595C93.6482 107.595 94.2032 107.385 94.6232 106.965C95.0532 106.545 95.2682 105.935 95.2682 105.135V103.755C94.9782 104.145 94.5832 104.475 94.0832 104.745C93.5932 105.005 93.0332 105.135 92.4032 105.135C91.6832 105.135 91.0232 104.955 90.4232 104.595C89.8332 104.225 89.3632 103.715 89.0132 103.065C88.6732 102.405 88.5032 101.66 88.5032 100.83C88.5032 100 88.6732 99.2652 89.0132 98.6252C89.3632 97.9852 89.8332 97.4902 90.4232 97.1402C91.0232 96.7802 91.6832 96.6002 92.4032 96.6002ZM95.2682 100.86C95.2682 100.29 95.1482 99.7952 94.9082 99.3752C94.6782 98.9552 94.3732 98.6352 93.9932 98.4152C93.6132 98.1952 93.2032 98.0852 92.7632 98.0852C92.3232 98.0852 91.9132 98.1952 91.5332 98.4152C91.1532 98.6252 90.8432 98.9402 90.6032 99.3602C90.3732 99.7702 90.2582 100.26 90.2582 100.83C90.2582 101.4 90.3732 101.9 90.6032 102.33C90.8432 102.76 91.1532 103.09 91.5332 103.32C91.9232 103.54 92.3332 103.65 92.7632 103.65C93.2032 103.65 93.6132 103.54 93.9932 103.32C94.3732 103.1 94.6782 102.78 94.9082 102.36C95.1482 101.93 95.2682 101.43 95.2682 100.86ZM103.409 96.6002C104.059 96.6002 104.639 96.7352 105.149 97.0052C105.669 97.2752 106.074 97.6752 106.364 98.2052C106.654 98.7352 106.799 99.3752 106.799 100.125V105H105.104V100.38C105.104 99.6402 104.919 99.0752 104.549 98.6852C104.179 98.2852 103.674 98.0852 103.034 98.0852C102.394 98.0852 101.884 98.2852 101.504 98.6852C101.134 99.0752 100.949 99.6402 100.949 100.38V105H99.2392V96.7352H100.949V97.6802C101.229 97.3402 101.584 97.0752 102.014 96.8852C102.454 96.6952 102.919 96.6002 103.409 96.6002ZM116.555 100.665C116.555 100.975 116.535 101.255 116.495 101.505H110.18C110.23 102.165 110.475 102.695 110.915 103.095C111.355 103.495 111.895 103.695 112.535 103.695C113.455 103.695 114.105 103.31 114.485 102.54H116.33C116.08 103.3 115.625 103.925 114.965 104.415C114.315 104.895 113.505 105.135 112.535 105.135C111.745 105.135 111.035 104.96 110.405 104.61C109.785 104.25 109.295 103.75 108.935 103.11C108.585 102.46 108.41 101.71 108.41 100.86C108.41 100.01 108.58 99.2652 108.92 98.6252C109.27 97.9752 109.755 97.4752 110.375 97.1252C111.005 96.7752 111.725 96.6002 112.535 96.6002C113.315 96.6002 114.01 96.7702 114.62 97.1102C115.23 97.4502 115.705 97.9302 116.045 98.5502C116.385 99.1602 116.555 99.8652 116.555 100.665ZM114.77 100.125C114.76 99.4952 114.535 98.9902 114.095 98.6102C113.655 98.2302 113.11 98.0402 112.46 98.0402C111.87 98.0402 111.365 98.2302 110.945 98.6102C110.525 98.9802 110.275 99.4852 110.195 100.125H114.77ZM117.668 100.83C117.668 100 117.838 99.2652 118.178 98.6252C118.528 97.9852 118.998 97.4902 119.588 97.1402C120.188 96.7802 120.853 96.6002 121.583 96.6002C122.123 96.6002 122.653 96.7202 123.173 96.9602C123.703 97.1902 124.123 97.5002 124.433 97.8902V93.9002H126.158V105H124.433V103.755C124.153 104.155 123.763 104.485 123.263 104.745C122.773 105.005 122.208 105.135 121.568 105.135C120.848 105.135 120.188 104.955 119.588 104.595C118.998 104.225 118.528 103.715 118.178 103.065C117.838 102.405 117.668 101.66 117.668 100.83ZM124.433 100.86C124.433 100.29 124.313 99.7952 124.073 99.3752C123.843 98.9552 123.538 98.6352 123.158 98.4152C122.778 98.1952 122.368 98.0852 121.928 98.0852C121.488 98.0852 121.078 98.1952 120.698 98.4152C120.318 98.6252 120.008 98.9402 119.768 99.3602C119.538 99.7702 119.423 100.26 119.423 100.83C119.423 101.4 119.538 101.9 119.768 102.33C120.008 102.76 120.318 103.09 120.698 103.32C121.088 103.54 121.498 103.65 121.928 103.65C122.368 103.65 122.778 103.54 123.158 103.32C123.538 103.1 123.843 102.78 124.073 102.36C124.313 101.93 124.433 101.43 124.433 100.86ZM134.296 98.1302V102.705C134.296 103.015 134.366 103.24 134.506 103.38C134.656 103.51 134.906 103.575 135.256 103.575H136.306V105H134.956C134.186 105 133.596 104.82 133.186 104.46C132.776 104.1 132.571 103.515 132.571 102.705V98.1302H131.596V96.7352H132.571V94.6802H134.296V96.7352H136.306V98.1302H134.296ZM141.467 105.135C140.687 105.135 139.982 104.96 139.352 104.61C138.722 104.25 138.227 103.75 137.867 103.11C137.507 102.46 137.327 101.71 137.327 100.86C137.327 100.02 137.512 99.2752 137.882 98.6252C138.252 97.9752 138.757 97.4752 139.397 97.1252C140.037 96.7752 140.752 96.6002 141.542 96.6002C142.332 96.6002 143.047 96.7752 143.687 97.1252C144.327 97.4752 144.832 97.9752 145.202 98.6252C145.572 99.2752 145.757 100.02 145.757 100.86C145.757 101.7 145.567 102.445 145.187 103.095C144.807 103.745 144.287 104.25 143.627 104.61C142.977 104.96 142.257 105.135 141.467 105.135ZM141.467 103.65C141.907 103.65 142.317 103.545 142.697 103.335C143.087 103.125 143.402 102.81 143.642 102.39C143.882 101.97 144.002 101.46 144.002 100.86C144.002 100.26 143.887 99.7552 143.657 99.3452C143.427 98.9252 143.122 98.6102 142.742 98.4002C142.362 98.1902 141.952 98.0852 141.512 98.0852C141.072 98.0852 140.662 98.1902 140.282 98.4002C139.912 98.6102 139.617 98.9252 139.397 99.3452C139.177 99.7552 139.067 100.26 139.067 100.86C139.067 101.75 139.292 102.44 139.742 102.93C140.202 103.41 140.777 103.65 141.467 103.65ZM155.619 96.6002C156.249 96.6002 156.809 96.7352 157.299 97.0052C157.799 97.2752 158.189 97.6752 158.469 98.2052C158.759 98.7352 158.904 99.3752 158.904 100.125V105H157.209V100.38C157.209 99.6402 157.024 99.0752 156.654 98.6852C156.284 98.2852 155.779 98.0852 155.139 98.0852C154.499 98.0852 153.989 98.2852 153.609 98.6852C153.239 99.0752 153.054 99.6402 153.054 100.38V105H151.344V93.9002H153.054V97.6952C153.344 97.3452 153.709 97.0752 154.149 96.8852C154.599 96.6952 155.089 96.6002 155.619 96.6002ZM160.515 100.83C160.515 100 160.685 99.2652 161.025 98.6252C161.375 97.9852 161.845 97.4902 162.435 97.1402C163.035 96.7802 163.695 96.6002 164.415 96.6002C165.065 96.6002 165.63 96.7302 166.11 96.9902C166.6 97.2402 166.99 97.5552 167.28 97.9352V96.7352H169.005V105H167.28V103.77C166.99 104.16 166.595 104.485 166.095 104.745C165.595 105.005 165.025 105.135 164.385 105.135C163.675 105.135 163.025 104.955 162.435 104.595C161.845 104.225 161.375 103.715 161.025 103.065C160.685 102.405 160.515 101.66 160.515 100.83ZM167.28 100.86C167.28 100.29 167.16 99.7952 166.92 99.3752C166.69 98.9552 166.385 98.6352 166.005 98.4152C165.625 98.1952 165.215 98.0852 164.775 98.0852C164.335 98.0852 163.925 98.1952 163.545 98.4152C163.165 98.6252 162.855 98.9402 162.615 99.3602C162.385 99.7702 162.27 100.26 162.27 100.83C162.27 101.4 162.385 101.9 162.615 102.33C162.855 102.76 163.165 103.09 163.545 103.32C163.935 103.54 164.345 103.65 164.775 103.65C165.215 103.65 165.625 103.54 166.005 103.32C166.385 103.1 166.69 102.78 166.92 102.36C167.16 101.93 167.28 101.43 167.28 100.86ZM175.421 96.6002C176.071 96.6002 176.651 96.7352 177.161 97.0052C177.681 97.2752 178.086 97.6752 178.376 98.2052C178.666 98.7352 178.811 99.3752 178.811 100.125V105H177.116V100.38C177.116 99.6402 176.931 99.0752 176.561 98.6852C176.191 98.2852 175.686 98.0852 175.046 98.0852C174.406 98.0852 173.896 98.2852 173.516 98.6852C173.146 99.0752 172.961 99.6402 172.961 100.38V105H171.251V96.7352H172.961V97.6802C173.241 97.3402 173.596 97.0752 174.026 96.8852C174.466 96.6952 174.931 96.6002 175.421 96.6002ZM180.422 100.83C180.422 100 180.592 99.2652 180.932 98.6252C181.282 97.9852 181.752 97.4902 182.342 97.1402C182.942 96.7802 183.607 96.6002 184.337 96.6002C184.877 96.6002 185.407 96.7202 185.927 96.9602C186.457 97.1902 186.877 97.5002 187.187 97.8902V93.9002H188.912V105H187.187V103.755C186.907 104.155 186.517 104.485 186.017 104.745C185.527 105.005 184.962 105.135 184.322 105.135C183.602 105.135 182.942 104.955 182.342 104.595C181.752 104.225 181.282 103.715 180.932 103.065C180.592 102.405 180.422 101.66 180.422 100.83ZM187.187 100.86C187.187 100.29 187.067 99.7952 186.827 99.3752C186.597 98.9552 186.292 98.6352 185.912 98.4152C185.532 98.1952 185.122 98.0852 184.682 98.0852C184.242 98.0852 183.832 98.1952 183.452 98.4152C183.072 98.6252 182.762 98.9402 182.522 99.3602C182.292 99.7702 182.177 100.26 182.177 100.83C182.177 101.4 182.292 101.9 182.522 102.33C182.762 102.76 183.072 103.09 183.452 103.32C183.842 103.54 184.252 103.65 184.682 103.65C185.122 103.65 185.532 103.54 185.912 103.32C186.292 103.1 186.597 102.78 186.827 102.36C187.067 101.93 187.187 101.43 187.187 100.86ZM192.868 93.9002V105H191.158V93.9002H192.868ZM202.688 100.665C202.688 100.975 202.668 101.255 202.628 101.505H196.313C196.363 102.165 196.608 102.695 197.048 103.095C197.488 103.495 198.028 103.695 198.668 103.695C199.588 103.695 200.238 103.31 200.618 102.54H202.463C202.213 103.3 201.758 103.925 201.098 104.415C200.448 104.895 199.638 105.135 198.668 105.135C197.878 105.135 197.168 104.96 196.538 104.61C195.918 104.25 195.428 103.75 195.068 103.11C194.718 102.46 194.543 101.71 194.543 100.86C194.543 100.01 194.713 99.2652 195.053 98.6252C195.403 97.9752 195.888 97.4752 196.508 97.1252C197.138 96.7752 197.858 96.6002 198.668 96.6002C199.448 96.6002 200.143 96.7702 200.753 97.1102C201.363 97.4502 201.838 97.9302 202.178 98.5502C202.518 99.1602 202.688 99.8652 202.688 100.665ZM200.903 100.125C200.893 99.4952 200.668 98.9902 200.228 98.6102C199.788 98.2302 199.243 98.0402 198.593 98.0402C198.003 98.0402 197.498 98.2302 197.078 98.6102C196.658 98.9802 196.408 99.4852 196.328 100.125H200.903ZM209.978 93.9002V105H208.268V93.9002H209.978ZM213.093 95.6402C212.783 95.6402 212.523 95.5352 212.313 95.3252C212.103 95.1152 211.998 94.8552 211.998 94.5452C211.998 94.2352 212.103 93.9752 212.313 93.7652C212.523 93.5552 212.783 93.4502 213.093 93.4502C213.393 93.4502 213.648 93.5552 213.858 93.7652C214.068 93.9752 214.173 94.2352 214.173 94.5452C214.173 94.8552 214.068 95.1152 213.858 95.3252C213.648 95.5352 213.393 95.6402 213.093 95.6402ZM213.933 96.7352V105H212.223V96.7352H213.933ZM219.643 98.1302H218.113V105H216.388V98.1302H215.413V96.7352H216.388V96.1502C216.388 95.2002 216.638 94.5102 217.138 94.0802C217.648 93.6402 218.443 93.4202 219.523 93.4202V94.8452C219.003 94.8452 218.638 94.9452 218.428 95.1452C218.218 95.3352 218.113 95.6702 218.113 96.1502V96.7352H219.643V98.1302ZM228.733 100.665C228.733 100.975 228.713 101.255 228.673 101.505H222.358C222.408 102.165 222.653 102.695 223.093 103.095C223.533 103.495 224.073 103.695 224.713 103.695C225.633 103.695 226.283 103.31 226.663 102.54H228.508C228.258 103.3 227.803 103.925 227.143 104.415C226.493 104.895 225.683 105.135 224.713 105.135C223.923 105.135 223.213 104.96 222.583 104.61C221.963 104.25 221.473 103.75 221.113 103.11C220.763 102.46 220.588 101.71 220.588 100.86C220.588 100.01 220.758 99.2652 221.098 98.6252C221.448 97.9752 221.933 97.4752 222.553 97.1252C223.183 96.7752 223.903 96.6002 224.713 96.6002C225.493 96.6002 226.188 96.7702 226.798 97.1102C227.408 97.4502 227.883 97.9302 228.223 98.5502C228.563 99.1602 228.733 99.8652 228.733 100.665ZM226.948 100.125C226.938 99.4952 226.713 98.9902 226.273 98.6102C225.833 98.2302 225.288 98.0402 224.638 98.0402C224.048 98.0402 223.543 98.2302 223.123 98.6102C222.703 98.9802 222.453 99.4852 222.373 100.125H226.948ZM237.897 105.135C237.117 105.135 236.412 104.96 235.782 104.61C235.152 104.25 234.657 103.75 234.297 103.11C233.937 102.46 233.757 101.71 233.757 100.86C233.757 100.02 233.942 99.2752 234.312 98.6252C234.682 97.9752 235.187 97.4752 235.827 97.1252C236.467 96.7752 237.182 96.6002 237.972 96.6002C238.762 96.6002 239.477 96.7752 240.117 97.1252C240.757 97.4752 241.262 97.9752 241.632 98.6252C242.002 99.2752 242.187 100.02 242.187 100.86C242.187 101.7 241.997 102.445 241.617 103.095C241.237 103.745 240.717 104.25 240.057 104.61C239.407 104.96 238.687 105.135 237.897 105.135ZM237.897 103.65C238.337 103.65 238.747 103.545 239.127 103.335C239.517 103.125 239.832 102.81 240.072 102.39C240.312 101.97 240.432 101.46 240.432 100.86C240.432 100.26 240.317 99.7552 240.087 99.3452C239.857 98.9252 239.552 98.6102 239.172 98.4002C238.792 98.1902 238.382 98.0852 237.942 98.0852C237.502 98.0852 237.092 98.1902 236.712 98.4002C236.342 98.6102 236.047 98.9252 235.827 99.3452C235.607 99.7552 235.497 100.26 235.497 100.86C235.497 101.75 235.722 102.44 236.172 102.93C236.632 103.41 237.207 103.65 237.897 103.65ZM248.048 96.6002C248.698 96.6002 249.278 96.7352 249.788 97.0052C250.308 97.2752 250.713 97.6752 251.003 98.2052C251.293 98.7352 251.438 99.3752 251.438 100.125V105H249.743V100.38C249.743 99.6402 249.558 99.0752 249.188 98.6852C248.818 98.2852 248.313 98.0852 247.673 98.0852C247.033 98.0852 246.523 98.2852 246.143 98.6852C245.773 99.0752 245.588 99.6402 245.588 100.38V105H243.878V96.7352H245.588V97.6802C245.868 97.3402 246.223 97.0752 246.653 96.8852C247.093 96.6952 247.558 96.6002 248.048 96.6002ZM259.511 98.1302V102.705C259.511 103.015 259.581 103.24 259.721 103.38C259.871 103.51 260.121 103.575 260.471 103.575H261.521V105H260.171C259.401 105 258.811 104.82 258.401 104.46C257.991 104.1 257.786 103.515 257.786 102.705V98.1302H256.811V96.7352H257.786V94.6802H259.511V96.7352H261.521V98.1302H259.511ZM267.372 96.6002C268.002 96.6002 268.562 96.7352 269.052 97.0052C269.552 97.2752 269.942 97.6752 270.222 98.2052C270.512 98.7352 270.657 99.3752 270.657 100.125V105H268.962V100.38C268.962 99.6402 268.777 99.0752 268.407 98.6852C268.037 98.2852 267.532 98.0852 266.892 98.0852C266.252 98.0852 265.742 98.2852 265.362 98.6852C264.992 99.0752 264.807 99.6402 264.807 100.38V105H263.097V93.9002H264.807V97.6952C265.097 97.3452 265.462 97.0752 265.902 96.8852C266.352 96.6952 266.842 96.6002 267.372 96.6002ZM280.413 100.665C280.413 100.975 280.393 101.255 280.353 101.505H274.038C274.088 102.165 274.333 102.695 274.773 103.095C275.213 103.495 275.753 103.695 276.393 103.695C277.313 103.695 277.963 103.31 278.343 102.54H280.188C279.938 103.3 279.483 103.925 278.823 104.415C278.173 104.895 277.363 105.135 276.393 105.135C275.603 105.135 274.893 104.96 274.263 104.61C273.643 104.25 273.153 103.75 272.793 103.11C272.443 102.46 272.268 101.71 272.268 100.86C272.268 100.01 272.438 99.2652 272.778 98.6252C273.128 97.9752 273.613 97.4752 274.233 97.1252C274.863 96.7752 275.583 96.6002 276.393 96.6002C277.173 96.6002 277.868 96.7702 278.478 97.1102C279.088 97.4502 279.563 97.9302 279.903 98.5502C280.243 99.1602 280.413 99.8652 280.413 100.665ZM278.628 100.125C278.618 99.4952 278.393 98.9902 277.953 98.6102C277.513 98.2302 276.968 98.0402 276.318 98.0402C275.728 98.0402 275.223 98.2302 274.803 98.6102C274.383 98.9802 274.133 99.4852 274.053 100.125H278.628ZM289.322 96.6002C289.962 96.6002 290.527 96.7302 291.017 96.9902C291.517 97.2402 291.907 97.5552 292.187 97.9352V96.7352H293.912V105.135C293.912 105.895 293.752 106.57 293.432 107.16C293.112 107.76 292.647 108.23 292.037 108.57C291.437 108.91 290.717 109.08 289.877 109.08C288.757 109.08 287.827 108.815 287.087 108.285C286.347 107.765 285.927 107.055 285.827 106.155H287.522C287.652 106.585 287.927 106.93 288.347 107.19C288.777 107.46 289.287 107.595 289.877 107.595C290.567 107.595 291.122 107.385 291.542 106.965C291.972 106.545 292.187 105.935 292.187 105.135V103.755C291.897 104.145 291.502 104.475 291.002 104.745C290.512 105.005 289.952 105.135 289.322 105.135C288.602 105.135 287.942 104.955 287.342 104.595C286.752 104.225 286.282 103.715 285.932 103.065C285.592 102.405 285.422 101.66 285.422 100.83C285.422 100 285.592 99.2652 285.932 98.6252C286.282 97.9852 286.752 97.4902 287.342 97.1402C287.942 96.7802 288.602 96.6002 289.322 96.6002ZM292.187 100.86C292.187 100.29 292.067 99.7952 291.827 99.3752C291.597 98.9552 291.292 98.6352 290.912 98.4152C290.532 98.1952 290.122 98.0852 289.682 98.0852C289.242 98.0852 288.832 98.1952 288.452 98.4152C288.072 98.6252 287.762 98.9402 287.522 99.3602C287.292 99.7702 287.177 100.26 287.177 100.83C287.177 101.4 287.292 101.9 287.522 102.33C287.762 102.76 288.072 103.09 288.452 103.32C288.842 103.54 289.252 103.65 289.682 103.65C290.122 103.65 290.532 103.54 290.912 103.32C291.292 103.1 291.597 102.78 291.827 102.36C292.067 101.93 292.187 101.43 292.187 100.86ZM299.743 105.135C298.963 105.135 298.258 104.96 297.628 104.61C296.998 104.25 296.503 103.75 296.143 103.11C295.783 102.46 295.603 101.71 295.603 100.86C295.603 100.02 295.788 99.2752 296.158 98.6252C296.528 97.9752 297.033 97.4752 297.673 97.1252C298.313 96.7752 299.028 96.6002 299.818 96.6002C300.608 96.6002 301.323 96.7752 301.963 97.1252C302.603 97.4752 303.108 97.9752 303.478 98.6252C303.848 99.2752 304.033 100.02 304.033 100.86C304.033 101.7 303.843 102.445 303.463 103.095C303.083 103.745 302.563 104.25 301.903 104.61C301.253 104.96 300.533 105.135 299.743 105.135ZM299.743 103.65C300.183 103.65 300.593 103.545 300.973 103.335C301.363 103.125 301.678 102.81 301.918 102.39C302.158 101.97 302.278 101.46 302.278 100.86C302.278 100.26 302.163 99.7552 301.933 99.3452C301.703 98.9252 301.398 98.6102 301.018 98.4002C300.638 98.1902 300.228 98.0852 299.788 98.0852C299.348 98.0852 298.938 98.1902 298.558 98.4002C298.188 98.6102 297.893 98.9252 297.673 99.3452C297.453 99.7552 297.343 100.26 297.343 100.86C297.343 101.75 297.568 102.44 298.018 102.93C298.478 103.41 299.053 103.65 299.743 103.65ZM306.414 105.105C306.104 105.105 305.844 105 305.634 104.79C305.424 104.58 305.319 104.32 305.319 104.01C305.319 103.7 305.424 103.44 305.634 103.23C305.844 103.02 306.104 102.915 306.414 102.915C306.714 102.915 306.969 103.02 307.179 103.23C307.389 103.44 307.494 103.7 307.494 104.01C307.494 104.32 307.389 104.58 307.179 104.79C306.969 105 306.714 105.105 306.414 105.105Z" fill="black"/>
<path d="M60.2818 64.3642V77.0002H57.2038V64.3642H60.2818ZM75.3284 66.8482C76.5764 66.8482 77.5664 67.2262 78.2984 67.9822C79.0424 68.7382 79.4144 69.7882 79.4144 71.1322V77.0002H76.3544V71.5462C76.3544 70.8982 76.1804 70.4002 75.8324 70.0522C75.4964 69.6922 75.0284 69.5122 74.4284 69.5122C73.8284 69.5122 73.3544 69.6922 73.0064 70.0522C72.6704 70.4002 72.5024 70.8982 72.5024 71.5462V77.0002H69.4424V71.5462C69.4424 70.8982 69.2684 70.4002 68.9204 70.0522C68.5844 69.6922 68.1164 69.5122 67.5164 69.5122C66.9164 69.5122 66.4424 69.6922 66.0944 70.0522C65.7584 70.4002 65.5904 70.8982 65.5904 71.5462V77.0002H62.5124V66.9562H65.5904V68.2162C65.9024 67.7962 66.3104 67.4662 66.8144 67.2262C67.3184 66.9742 67.8884 66.8482 68.5244 66.8482C69.2804 66.8482 69.9524 67.0102 70.5404 67.3342C71.1404 67.6582 71.6084 68.1202 71.9444 68.7202C72.2924 68.1682 72.7664 67.7182 73.3664 67.3702C73.9664 67.0222 74.6204 66.8482 75.3284 66.8482ZM84.6451 68.3782C84.9451 67.9102 85.3591 67.5322 85.8871 67.2442C86.4151 66.9562 87.0331 66.8122 87.7411 66.8122C88.5691 66.8122 89.3191 67.0222 89.9911 67.4422C90.6631 67.8622 91.1911 68.4622 91.5751 69.2422C91.9711 70.0222 92.1691 70.9282 92.1691 71.9602C92.1691 72.9922 91.9711 73.9042 91.5751 74.6962C91.1911 75.4762 90.6631 76.0822 89.9911 76.5142C89.3191 76.9342 88.5691 77.1442 87.7411 77.1442C87.0451 77.1442 86.4271 77.0002 85.8871 76.7122C85.3591 76.4242 84.9451 76.0522 84.6451 75.5962V81.7882H81.5671V66.9562H84.6451V68.3782ZM89.0371 71.9602C89.0371 71.1922 88.8211 70.5922 88.3891 70.1602C87.9691 69.7162 87.4471 69.4942 86.8231 69.4942C86.2111 69.4942 85.6891 69.7162 85.2571 70.1602C84.8371 70.6042 84.6271 71.2102 84.6271 71.9782C84.6271 72.7462 84.8371 73.3522 85.2571 73.7962C85.6891 74.2402 86.2111 74.4622 86.8231 74.4622C87.4351 74.4622 87.9571 74.2402 88.3891 73.7962C88.8211 73.3402 89.0371 72.7282 89.0371 71.9602ZM93.1719 71.9602C93.1719 70.9282 93.3639 70.0222 93.7479 69.2422C94.1439 68.4622 94.6779 67.8622 95.3499 67.4422C96.0219 67.0222 96.7719 66.8122 97.5999 66.8122C98.3079 66.8122 98.9259 66.9562 99.4539 67.2442C99.9939 67.5322 100.408 67.9102 100.696 68.3782V66.9562H103.774V77.0002H100.696V75.5782C100.396 76.0462 99.9759 76.4242 99.4359 76.7122C98.9079 77.0002 98.2899 77.1442 97.5819 77.1442C96.7659 77.1442 96.0219 76.9342 95.3499 76.5142C94.6779 76.0822 94.1439 75.4762 93.7479 74.6962C93.3639 73.9042 93.1719 72.9922 93.1719 71.9602ZM100.696 71.9782C100.696 71.2102 100.48 70.6042 100.048 70.1602C99.6279 69.7162 99.1119 69.4942 98.4999 69.4942C97.8879 69.4942 97.3659 69.7162 96.9339 70.1602C96.5139 70.5922 96.3039 71.1922 96.3039 71.9602C96.3039 72.7282 96.5139 73.3402 96.9339 73.7962C97.3659 74.2402 97.8879 74.4622 98.4999 74.4622C99.1119 74.4622 99.6279 74.2402 100.048 73.7962C100.48 73.3522 100.696 72.7462 100.696 71.9782ZM105.389 71.9782C105.389 70.9342 105.599 70.0222 106.019 69.2422C106.451 68.4622 107.045 67.8622 107.801 67.4422C108.569 67.0222 109.445 66.8122 110.429 66.8122C111.689 66.8122 112.739 67.1422 113.579 67.8022C114.431 68.4622 114.989 69.3922 115.253 70.5922H111.977C111.701 69.8242 111.167 69.4402 110.375 69.4402C109.811 69.4402 109.361 69.6622 109.025 70.1062C108.689 70.5382 108.521 71.1622 108.521 71.9782C108.521 72.7942 108.689 73.4242 109.025 73.8682C109.361 74.3002 109.811 74.5162 110.375 74.5162C111.167 74.5162 111.701 74.1322 111.977 73.3642H115.253C114.989 74.5402 114.431 75.4642 113.579 76.1362C112.727 76.8082 111.677 77.1442 110.429 77.1442C109.445 77.1442 108.569 76.9342 107.801 76.5142C107.045 76.0942 106.451 75.4942 106.019 74.7142C105.599 73.9342 105.389 73.0222 105.389 71.9782ZM122.497 74.3902V77.0002H120.931C119.815 77.0002 118.945 76.7302 118.321 76.1902C117.697 75.6382 117.385 74.7442 117.385 73.5082V69.5122H116.161V66.9562H117.385V64.5082H120.463V66.9562H122.479V69.5122H120.463V73.5442C120.463 73.8442 120.535 74.0602 120.679 74.1922C120.823 74.3242 121.063 74.3902 121.399 74.3902H122.497ZM131.104 68.6302C131.464 68.0782 131.914 67.6462 132.454 67.3342C132.994 67.0102 133.594 66.8482 134.254 66.8482V70.1062H133.408C132.64 70.1062 132.064 70.2742 131.68 70.6102C131.296 70.9342 131.104 71.5102 131.104 72.3382V77.0002H128.026V66.9562H131.104V68.6302ZM145.193 71.8162C145.193 72.1042 145.175 72.4042 145.139 72.7162H138.173C138.221 73.3402 138.419 73.8202 138.767 74.1562C139.127 74.4802 139.565 74.6422 140.081 74.6422C140.849 74.6422 141.383 74.3182 141.683 73.6702H144.959C144.791 74.3302 144.485 74.9242 144.041 75.4522C143.609 75.9802 143.063 76.3942 142.403 76.6942C141.743 76.9942 141.005 77.1442 140.189 77.1442C139.205 77.1442 138.329 76.9342 137.561 76.5142C136.793 76.0942 136.193 75.4942 135.761 74.7142C135.329 73.9342 135.113 73.0222 135.113 71.9782C135.113 70.9342 135.323 70.0222 135.743 69.2422C136.175 68.4622 136.775 67.8622 137.543 67.4422C138.311 67.0222 139.193 66.8122 140.189 66.8122C141.161 66.8122 142.025 67.0162 142.781 67.4242C143.537 67.8322 144.125 68.4142 144.545 69.1702C144.977 69.9262 145.193 70.8082 145.193 71.8162ZM142.043 71.0062C142.043 70.4782 141.863 70.0582 141.503 69.7462C141.143 69.4342 140.693 69.2782 140.153 69.2782C139.637 69.2782 139.199 69.4282 138.839 69.7282C138.491 70.0282 138.275 70.4542 138.191 71.0062H142.043ZM150.903 77.1442C150.027 77.1442 149.247 76.9942 148.563 76.6942C147.879 76.3942 147.339 75.9862 146.943 75.4702C146.547 74.9422 146.325 74.3542 146.277 73.7062H149.319C149.355 74.0542 149.517 74.3362 149.805 74.5522C150.093 74.7682 150.447 74.8762 150.867 74.8762C151.251 74.8762 151.545 74.8042 151.749 74.6602C151.965 74.5042 152.073 74.3062 152.073 74.0662C152.073 73.7782 151.923 73.5682 151.623 73.4362C151.323 73.2922 150.837 73.1362 150.165 72.9682C149.445 72.8002 148.845 72.6262 148.365 72.4462C147.885 72.2542 147.471 71.9602 147.123 71.5642C146.775 71.1562 146.601 70.6102 146.601 69.9262C146.601 69.3502 146.757 68.8282 147.069 68.3602C147.393 67.8802 147.861 67.5022 148.473 67.2262C149.097 66.9502 149.835 66.8122 150.687 66.8122C151.947 66.8122 152.937 67.1242 153.657 67.7482C154.389 68.3722 154.809 69.2002 154.917 70.2322H152.073C152.025 69.8842 151.869 69.6082 151.605 69.4042C151.353 69.2002 151.017 69.0982 150.597 69.0982C150.237 69.0982 149.961 69.1702 149.769 69.3142C149.577 69.4462 149.481 69.6322 149.481 69.8722C149.481 70.1602 149.631 70.3762 149.931 70.5202C150.243 70.6642 150.723 70.8082 151.371 70.9522C152.115 71.1442 152.721 71.3362 153.189 71.5282C153.657 71.7082 154.065 72.0082 154.413 72.4282C154.773 72.8362 154.959 73.3882 154.971 74.0842C154.971 74.6722 154.803 75.2002 154.467 75.6682C154.143 76.1242 153.669 76.4842 153.045 76.7482C152.433 77.0122 151.719 77.1442 150.903 77.1442ZM158.402 65.9122C157.862 65.9122 157.418 65.7562 157.07 65.4442C156.734 65.1202 156.566 64.7242 156.566 64.2562C156.566 63.7762 156.734 63.3802 157.07 63.0682C157.418 62.7442 157.862 62.5822 158.402 62.5822C158.93 62.5822 159.362 62.7442 159.698 63.0682C160.046 63.3802 160.22 63.7762 160.22 64.2562C160.22 64.7242 160.046 65.1202 159.698 65.4442C159.362 65.7562 158.93 65.9122 158.402 65.9122ZM159.932 66.9562V77.0002H156.854V66.9562H159.932ZM166.249 77.1442C165.373 77.1442 164.593 76.9942 163.909 76.6942C163.225 76.3942 162.685 75.9862 162.289 75.4702C161.893 74.9422 161.671 74.3542 161.623 73.7062H164.665C164.701 74.0542 164.863 74.3362 165.151 74.5522C165.439 74.7682 165.793 74.8762 166.213 74.8762C166.597 74.8762 166.891 74.8042 167.095 74.6602C167.311 74.5042 167.419 74.3062 167.419 74.0662C167.419 73.7782 167.269 73.5682 166.969 73.4362C166.669 73.2922 166.183 73.1362 165.511 72.9682C164.791 72.8002 164.191 72.6262 163.711 72.4462C163.231 72.2542 162.817 71.9602 162.469 71.5642C162.121 71.1562 161.947 70.6102 161.947 69.9262C161.947 69.3502 162.103 68.8282 162.415 68.3602C162.739 67.8802 163.207 67.5022 163.819 67.2262C164.443 66.9502 165.181 66.8122 166.033 66.8122C167.293 66.8122 168.283 67.1242 169.003 67.7482C169.735 68.3722 170.155 69.2002 170.263 70.2322H167.419C167.371 69.8842 167.215 69.6082 166.951 69.4042C166.699 69.2002 166.363 69.0982 165.943 69.0982C165.583 69.0982 165.307 69.1702 165.115 69.3142C164.923 69.4462 164.827 69.6322 164.827 69.8722C164.827 70.1602 164.977 70.3762 165.277 70.5202C165.589 70.6642 166.069 70.8082 166.717 70.9522C167.461 71.1442 168.067 71.3362 168.535 71.5282C169.003 71.7082 169.411 72.0082 169.759 72.4282C170.119 72.8362 170.305 73.3882 170.317 74.0842C170.317 74.6722 170.149 75.2002 169.813 75.6682C169.489 76.1242 169.015 76.4842 168.391 76.7482C167.779 77.0122 167.065 77.1442 166.249 77.1442ZM177.798 74.3902V77.0002H176.232C175.116 77.0002 174.246 76.7302 173.622 76.1902C172.998 75.6382 172.686 74.7442 172.686 73.5082V69.5122H171.462V66.9562H172.686V64.5082H175.764V66.9562H177.78V69.5122H175.764V73.5442C175.764 73.8442 175.836 74.0602 175.98 74.1922C176.124 74.3242 176.364 74.3902 176.7 74.3902H177.798ZM178.9 71.9602C178.9 70.9282 179.092 70.0222 179.476 69.2422C179.872 68.4622 180.406 67.8622 181.078 67.4422C181.75 67.0222 182.5 66.8122 183.328 66.8122C184.036 66.8122 184.654 66.9562 185.182 67.2442C185.722 67.5322 186.136 67.9102 186.424 68.3782V66.9562H189.502V77.0002H186.424V75.5782C186.124 76.0462 185.704 76.4242 185.164 76.7122C184.636 77.0002 184.018 77.1442 183.31 77.1442C182.494 77.1442 181.75 76.9342 181.078 76.5142C180.406 76.0822 179.872 75.4762 179.476 74.6962C179.092 73.9042 178.9 72.9922 178.9 71.9602ZM186.424 71.9782C186.424 71.2102 186.208 70.6042 185.776 70.1602C185.356 69.7162 184.84 69.4942 184.228 69.4942C183.616 69.4942 183.094 69.7162 182.662 70.1602C182.242 70.5922 182.032 71.1922 182.032 71.9602C182.032 72.7282 182.242 73.3402 182.662 73.7962C183.094 74.2402 183.616 74.4622 184.228 74.4622C184.84 74.4622 185.356 74.2402 185.776 73.7962C186.208 73.3522 186.424 72.7462 186.424 71.9782ZM197.849 66.8482C199.025 66.8482 199.961 67.2322 200.657 68.0002C201.365 68.7562 201.719 69.8002 201.719 71.1322V77.0002H198.659V71.5462C198.659 70.8742 198.485 70.3522 198.137 69.9802C197.789 69.6082 197.321 69.4222 196.733 69.4222C196.145 69.4222 195.677 69.6082 195.329 69.9802C194.981 70.3522 194.807 70.8742 194.807 71.5462V77.0002H191.729V66.9562H194.807V68.2882C195.119 67.8442 195.539 67.4962 196.067 67.2442C196.595 66.9802 197.189 66.8482 197.849 66.8482ZM209.456 74.3902V77.0002H207.89C206.774 77.0002 205.904 76.7302 205.28 76.1902C204.656 75.6382 204.344 74.7442 204.344 73.5082V69.5122H203.12V66.9562H204.344V64.5082H207.422V66.9562H209.438V69.5122H207.422V73.5442C207.422 73.8442 207.494 74.0602 207.638 74.1922C207.782 74.3242 208.022 74.3902 208.358 74.3902H209.456Z" fill="black"/>
<defs>
<filter id="filter0_d_4_452" x="0.0878296" y="0.000244141" width="413" height="170" filterUnits="userSpaceOnUse" color-interpolation-filters="sRGB">
<feFlood flood-opacity="0" result="BackgroundImageFix"/>
<feColorMatrix in="SourceAlpha" type="matrix" values="0 0 0 0 0 0 0 0 0 0 0 0 0 0 0 0 0 0 127 0" result="hardAlpha"/>
<feOffset/>
<feGaussianBlur stdDeviation="16"/>
<feColorMatrix type="matrix" values="0 0 0 0 0 0 0 0 0 0 0 0 0 0 0 0 0 0 0.1 0"/>
<feBlend mode="normal" in2="BackgroundImageFix" result="effect1_dropShadow_4_452"/>
<feBlend mode="normal" in="SourceGraphic" in2="effect1_dropShadow_4_452" result="shape"/>
</filter>
</defs>
</svg>
