<svg width="165" height="27" viewBox="0 0 165 27" fill="none" xmlns="http://www.w3.org/2000/svg">
<path d="M112.444 11.112H100.793L102.695 6.82193C103.488 5.02854 104.201 4.39558 105.364 4.39558C106.552 4.39558 106.949 5.6615 106.315 7.20875H118.204L119.393 4.39558C120.264 2.2857 120.264 0 118.124 0H97.1733C95.2711 0 93.7915 0.316482 92.6819 2.74284L88.9831 11.112C87.9527 13.5384 88.032 15.5076 90.5683 15.5076H102.616L100.661 20.1142C100.106 21.3801 99.3926 22.224 97.7546 22.224C96.3279 22.224 96.4071 20.9581 97.0412 19.7273H85.2314L83.8048 22.857C82.9329 24.8614 83.6462 26.6196 85.707 26.6196H106.5C108.402 26.6196 110.04 25.4592 110.991 23.3845L114.531 15.5076C115.271 13.5384 114.875 11.112 112.444 11.112Z" fill="white"/>
<path d="M163.039 5.16946C162.088 5.16946 161.295 6.18924 161.295 7.42C161.295 8.68593 162.088 9.67053 163.039 9.67053C163.99 9.67053 164.783 8.65076 164.783 7.42C164.756 6.18924 163.99 5.16946 163.039 5.16946ZM163.039 9.24856C162.246 9.24856 161.639 8.43977 161.639 7.42C161.639 6.43539 162.273 5.6266 163.039 5.6266C163.805 5.6266 164.439 6.43539 164.439 7.42C164.439 8.43977 163.805 9.24856 163.039 9.24856Z" fill="white"/>
<path d="M85.602 0H67.7949C65.3642 0 62.1938 0 60.318 4.39558L52.4448 22.224C51.3352 24.6504 52.2863 26.6196 54.347 26.6196H75.034C77.1476 26.6196 78.495 25.7757 80.1595 22.224L88.0327 4.39558C89.063 2.10988 87.4778 0 85.602 0ZM75.5888 6.82193L69.6971 20.1142C68.9045 22.013 68.1912 22.224 66.3946 22.224C64.5716 22.224 64.1225 21.3801 64.6509 20.1142L70.6218 6.82193C71.4937 4.81755 72.5241 4.39558 74.0036 4.39558C75.5095 4.39558 76.3814 5.02854 75.5888 6.82193Z" fill="white"/>
<path d="M54.3989 0H31.572L21.7437 22.224H0V26.6196H43.8573C46.7635 26.6196 47.7147 24.7207 48.3487 23.279L50.7001 17.8285C51.3342 16.3515 51.3342 14.6988 50.0661 13.7494C51.3342 13.7494 53.0515 12.5889 54.0819 10.1977L56.4333 4.85272C57.6486 2.21537 56.2219 0 54.3989 0ZM42.6684 17.934L41.4795 20.4306C41.1625 21.2746 40.6077 22.224 39.2867 22.224H33.4478L36.4597 15.5076H42.1136C43.144 15.5076 43.144 16.7735 42.6684 17.934ZM47.6354 6.82193L46.4465 9.35379C46.1295 10.1977 45.5746 11.1472 44.2536 11.1472H38.4148L41.4003 4.43074H47.0806C48.111 4.39558 48.111 5.6615 47.6354 6.82193Z" fill="white"/>
<path d="M163.911 6.82214C163.911 6.61115 163.831 6.40017 163.699 6.29467C163.541 6.18918 163.382 6.18918 163.224 6.18918H162.378V8.68587H162.669V7.52543H163.012L163.567 8.68587H163.884L163.303 7.52543C163.646 7.52543 163.911 7.31445 163.911 6.82214ZM162.986 7.20895H162.669V6.43533H163.171C163.409 6.43533 163.62 6.47049 163.62 6.78698C163.62 7.27928 163.25 7.20895 162.986 7.20895Z" fill="white"/>
<path d="M134.848 4.39558H164.386V0H125.02L113.29 26.6196H140.687L142.642 22.224H126.975L129.961 15.5076H145.628L147.53 11.112H131.942L134.848 4.39558Z" fill="white"/>
</svg>
