<svg width="54" height="54" viewBox="0 0 54 54" fill="none" xmlns="http://www.w3.org/2000/svg">
<path d="M44.3083 8.86182H8.86168C6.42472 8.86182 4.453 10.8557 4.453 13.2927L4.43085 39.8777C4.43085 42.3146 6.42472 44.3085 8.86168 44.3085H44.3083C46.7453 44.3085 48.7392 42.3146 48.7392 39.8777V13.2927C48.7392 10.8557 46.7453 8.86182 44.3083 8.86182ZM43.4222 18.2773L27.7592 28.0695C27.0503 28.5126 26.1198 28.5126 25.4108 28.0695L9.74785 18.2773C9.19399 17.9229 8.86168 17.3247 8.86168 16.6822C8.86168 15.1979 10.4789 14.3117 11.7417 15.0871L26.585 24.3697L41.4283 15.0871C42.6911 14.3117 44.3083 15.1979 44.3083 16.6822C44.3083 17.3247 43.976 17.9229 43.4222 18.2773Z" fill="#676767"/>
</svg>
